<?xml version="1.0" encoding="utf-8"?>
<!-- Generator: Adobe Illustrator 23.1.0, SVG Export Plug-In . SVG Version: 6.00 Build 0)  -->
<svg version="1.1" id="Слой_1" xmlns:xodm="http://www.corel.com/coreldraw/odm/2003"
	 xmlns="http://www.w3.org/2000/svg" xmlns:xlink="http://www.w3.org/1999/xlink" x="0px" y="0px" viewBox="0 0 163.9 28.7"
	 style="enable-background:new 0 0 163.9 28.7;" xml:space="preserve">
<style type="text/css">
	.st0{fill:none;stroke:#06456E;stroke-width:2.2501;stroke-miterlimit:10;}
	.st1{fill:none;stroke:#4284B0;stroke-width:2.2501;stroke-miterlimit:10;}
	.st2{fill:#06456E;}
	.st3{fill:#4284B0;}
	.st4{fill:#FBA02F;}
</style>
<g id="Слой_x0020_1">
	<polyline id="Path" class="st0" points="18.8,21.3 18.8,27.5 1.3,27.5 1.3,10 1.3,10 18.8,10 18.8,16.3 	"/>
	<polyline id="Path_0" class="st1" points="10,7.5 10,1.3 10,1.3 27.5,1.3 27.5,18.8 10,18.8 10,12.5 	"/>
	<path id="Linked" class="st2" d="M49.1,19.2v1.6h-8.5V6.6h1.8v12.6H49.1L49.1,19.2z M52.5,20.8h-1.7V10.7h1.7V20.8z M50.6,7.8
		c0-0.3,0.1-0.6,0.3-0.8c0.2-0.2,0.5-0.3,0.8-0.3c0.3,0,0.6,0.1,0.8,0.3c0.2,0.2,0.3,0.5,0.3,0.8c0,0.3-0.1,0.6-0.3,0.8
		c-0.2,0.2-0.5,0.3-0.8,0.3c-0.3,0-0.6-0.1-0.8-0.3C50.7,8.3,50.6,8.1,50.6,7.8z M60,10.5c0.5,0,1,0.1,1.5,0.3
		c0.5,0.2,0.9,0.5,1.2,0.9c0.4,0.4,0.6,0.8,0.9,1.4c0.2,0.5,0.3,1.1,0.3,1.8v5.8h-1.7v-5.8c0-0.4-0.1-0.8-0.2-1.1
		c-0.1-0.3-0.3-0.6-0.5-0.9c-0.2-0.2-0.5-0.4-0.8-0.6c-0.3-0.1-0.6-0.2-1-0.2c-0.8,0-1.4,0.3-1.9,0.8c-0.5,0.5-0.7,1.2-0.7,2v5.8
		h-1.7V10.7h1.2l0.5,1.1c0.2-0.2,0.5-0.4,0.7-0.6c0.3-0.2,0.6-0.3,0.9-0.4C59.1,10.6,59.5,10.5,60,10.5L60,10.5z M68.5,20.8h-1.7
		V6.6h1.7V20.8z M72.8,20.8l-4.3-5.3l3.8-4.8h1.9l-3.8,4.7l4.4,5.4L72.8,20.8L72.8,20.8z M84.4,18.1c-0.2,0.4-0.4,0.7-0.6,1.1
		c-0.3,0.3-0.6,0.6-0.9,0.9c-0.3,0.3-0.7,0.5-1.2,0.6c-0.4,0.2-0.9,0.2-1.5,0.2c-0.6,0-1.3-0.1-1.8-0.4c-0.6-0.3-1.1-0.6-1.5-1.1
		c-0.4-0.5-0.8-1-1-1.6c-0.2-0.6-0.4-1.3-0.4-2.1c0-0.8,0.1-1.5,0.4-2.1c0.2-0.6,0.6-1.2,1-1.6c0.4-0.5,0.9-0.8,1.5-1.1
		c0.6-0.3,1.2-0.4,1.8-0.4c0.6,0,1.2,0.1,1.7,0.4c0.5,0.2,1,0.6,1.4,1c0.4,0.4,0.7,1,1,1.6c0.2,0.6,0.4,1.3,0.4,2.1
		c0,0.1,0,0.3,0,0.4c0,0.1,0,0.2,0,0.3c0,0.1,0,0.2,0,0.3h-7.2c0,0.4,0.1,0.7,0.3,1.1c0.2,0.3,0.4,0.6,0.6,0.9
		c0.3,0.3,0.6,0.5,0.9,0.6c0.3,0.2,0.7,0.2,1.1,0.2c0.3,0,0.6,0,0.8-0.1c0.2-0.1,0.5-0.2,0.7-0.3c0.2-0.1,0.4-0.2,0.5-0.4
		c0.1-0.1,0.2-0.3,0.3-0.4L84.4,18.1L84.4,18.1z M80.1,12.1c-0.3,0-0.7,0.1-1,0.2c-0.3,0.1-0.6,0.3-0.8,0.6
		c-0.3,0.3-0.5,0.6-0.6,0.9c-0.2,0.4-0.3,0.8-0.3,1.2h5.5c-0.1-0.9-0.4-1.6-0.9-2.1C81.4,12.4,80.8,12.1,80.1,12.1z M94.2,15.7
		c0-0.5-0.1-1-0.3-1.5c-0.2-0.4-0.4-0.8-0.7-1.1c-0.3-0.3-0.6-0.6-1-0.7c-0.4-0.2-0.8-0.3-1.2-0.3c-0.4,0-0.8,0.1-1.2,0.3
		c-0.4,0.2-0.7,0.4-1,0.7c-0.3,0.3-0.5,0.7-0.7,1.1c-0.2,0.4-0.3,0.9-0.3,1.5c0,0.5,0.1,1,0.3,1.5c0.2,0.4,0.4,0.8,0.7,1.1
		c0.3,0.3,0.6,0.6,1,0.7c0.4,0.2,0.8,0.3,1.2,0.3c0.4,0,0.8-0.1,1.2-0.3c0.4-0.2,0.7-0.4,1-0.7c0.3-0.3,0.5-0.7,0.7-1.1
		C94.1,16.8,94.2,16.3,94.2,15.7z M94,19.7c-0.2,0.2-0.5,0.5-0.8,0.6c-0.3,0.2-0.6,0.3-1,0.4c-0.4,0.1-0.8,0.2-1.3,0.2
		c-0.6,0-1.3-0.1-1.8-0.4c-0.6-0.3-1.1-0.6-1.5-1.1c-0.4-0.5-0.8-1-1-1.6c-0.2-0.6-0.4-1.3-0.4-2.1c0-0.8,0.1-1.5,0.4-2.1
		c0.2-0.6,0.6-1.2,1-1.6c0.4-0.5,0.9-0.8,1.5-1.1c0.6-0.3,1.2-0.4,1.8-0.4c0.5,0,1,0.1,1.3,0.2c0.4,0.1,0.7,0.3,0.9,0.5
		c0.3,0.2,0.5,0.4,0.8,0.7V6.6h1.7v14.2h-1.2L94,19.7L94,19.7z"/>
	<path id="Helper" class="st3" d="M107.3,6.6v14.2h-1.8v-6.4h-6.9v6.4h-1.8V6.6h1.8v6.2h6.9V6.6H107.3z M118.7,18.1
		c-0.2,0.4-0.4,0.7-0.6,1.1c-0.3,0.3-0.6,0.6-0.9,0.9c-0.3,0.3-0.7,0.5-1.2,0.6c-0.4,0.2-0.9,0.2-1.5,0.2c-0.6,0-1.3-0.1-1.8-0.4
		c-0.6-0.3-1.1-0.6-1.5-1.1c-0.4-0.5-0.8-1-1-1.6c-0.2-0.6-0.4-1.3-0.4-2.1c0-0.8,0.1-1.5,0.4-2.1c0.2-0.6,0.6-1.2,1-1.6
		c0.4-0.5,0.9-0.8,1.5-1.1c0.6-0.3,1.2-0.4,1.8-0.4c0.6,0,1.2,0.1,1.7,0.4c0.5,0.2,1,0.6,1.4,1c0.4,0.4,0.7,1,1,1.6
		c0.2,0.6,0.4,1.3,0.4,2.1c0,0.1,0,0.3,0,0.4c0,0.1,0,0.2,0,0.3c0,0.1,0,0.2,0,0.3h-7.2c0,0.4,0.1,0.7,0.3,1.1
		c0.2,0.3,0.4,0.6,0.6,0.9c0.3,0.3,0.6,0.5,0.9,0.6c0.3,0.2,0.7,0.2,1.1,0.2c0.3,0,0.6,0,0.8-0.1c0.2-0.1,0.5-0.2,0.7-0.3
		c0.2-0.1,0.4-0.2,0.5-0.4c0.1-0.1,0.2-0.3,0.3-0.4L118.7,18.1L118.7,18.1z M114.5,12.1c-0.3,0-0.7,0.1-1,0.2
		c-0.3,0.1-0.6,0.3-0.8,0.6c-0.3,0.3-0.5,0.6-0.6,0.9c-0.2,0.4-0.3,0.8-0.3,1.2h5.5c-0.1-0.9-0.4-1.6-0.9-2.1
		C115.7,12.4,115.1,12.1,114.5,12.1L114.5,12.1z M123,20.8h-1.7V6.6h1.7V20.8z M127.5,15.7c0,0.5,0.1,1,0.3,1.5
		c0.2,0.4,0.4,0.8,0.7,1.1c0.3,0.3,0.6,0.6,1,0.7c0.4,0.2,0.8,0.3,1.2,0.3c0.4,0,0.8-0.1,1.2-0.3c0.4-0.2,0.7-0.4,1-0.7
		c0.3-0.3,0.5-0.7,0.7-1.1c0.2-0.4,0.3-0.9,0.3-1.5c0-0.5-0.1-1-0.3-1.5c-0.2-0.4-0.4-0.8-0.7-1.1c-0.3-0.3-0.6-0.6-1-0.7
		c-0.4-0.2-0.8-0.3-1.2-0.3c-0.4,0-0.8,0.1-1.2,0.3c-0.4,0.2-0.7,0.4-1,0.7c-0.3,0.3-0.5,0.7-0.7,1.1
		C127.6,14.7,127.5,15.2,127.5,15.7z M127.7,11.8c0.2-0.2,0.5-0.4,0.8-0.6c0.3-0.2,0.6-0.3,1-0.4c0.4-0.1,0.8-0.2,1.3-0.2
		c0.6,0,1.3,0.1,1.8,0.4c0.6,0.3,1.1,0.6,1.5,1.1c0.4,0.5,0.8,1,1,1.6c0.2,0.6,0.4,1.3,0.4,2.1c0,0.8-0.1,1.5-0.4,2.1
		c-0.2,0.6-0.6,1.2-1,1.6c-0.4,0.5-0.9,0.8-1.5,1.1c-0.6,0.3-1.2,0.4-1.8,0.4c-0.5,0-1-0.1-1.3-0.2c-0.4-0.1-0.7-0.3-0.9-0.5
		c-0.3-0.2-0.6-0.4-0.8-0.7v4.8H126V10.7h1.2L127.7,11.8L127.7,11.8z M145.9,18.1c-0.2,0.4-0.4,0.7-0.6,1.1
		c-0.3,0.3-0.6,0.6-0.9,0.9c-0.3,0.3-0.7,0.5-1.2,0.6c-0.4,0.2-0.9,0.2-1.5,0.2c-0.6,0-1.3-0.1-1.8-0.4c-0.6-0.3-1.1-0.6-1.5-1.1
		c-0.4-0.5-0.8-1-1-1.6c-0.2-0.6-0.4-1.3-0.4-2.1c0-0.8,0.1-1.5,0.4-2.1c0.2-0.6,0.6-1.2,1-1.6c0.4-0.5,0.9-0.8,1.5-1.1
		c0.6-0.3,1.2-0.4,1.8-0.4c0.6,0,1.2,0.1,1.7,0.4c0.5,0.2,1,0.6,1.4,1c0.4,0.4,0.7,1,1,1.6c0.2,0.6,0.4,1.3,0.4,2.1
		c0,0.1,0,0.3,0,0.4c0,0.1,0,0.2,0,0.3c0,0.1,0,0.2,0,0.3h-7.2c0,0.4,0.1,0.7,0.3,1.1c0.2,0.3,0.4,0.6,0.6,0.9
		c0.3,0.3,0.6,0.5,0.9,0.6c0.3,0.2,0.7,0.2,1.1,0.2c0.3,0,0.6,0,0.8-0.1c0.2-0.1,0.5-0.2,0.7-0.3c0.2-0.1,0.4-0.2,0.5-0.4
		c0.1-0.1,0.2-0.3,0.3-0.4L145.9,18.1L145.9,18.1z M141.7,12.1c-0.3,0-0.7,0.1-1,0.2c-0.3,0.1-0.6,0.3-0.8,0.6
		c-0.3,0.3-0.5,0.6-0.6,0.9s-0.3,0.8-0.3,1.2h5.5c-0.1-0.9-0.4-1.6-0.9-2.1C142.9,12.4,142.3,12.1,141.7,12.1L141.7,12.1z
		 M153.2,12.2h-0.5c-0.8,0-1.4,0.3-1.9,0.8c-0.5,0.5-0.7,1.2-0.7,2v5.7h-1.7V10.7h1.2l0.5,1.1c0.2-0.2,0.5-0.4,0.7-0.6
		c0.3-0.2,0.6-0.3,0.9-0.4c0.4-0.1,0.8-0.2,1.3-0.2h0.2L153.2,12.2L153.2,12.2z"/>
	<path id="_2" class="st4" d="M163.9,11.5V14H157v-1.7l3.2-3.4c0.1-0.1,0.3-0.3,0.4-0.4c0.1-0.1,0.2-0.3,0.3-0.4
		c0.1-0.2,0.1-0.3,0.1-0.5c0-0.2-0.1-0.4-0.2-0.5c-0.1-0.1-0.3-0.2-0.5-0.2c-0.3,0-0.5,0.1-0.6,0.3c-0.2,0.2-0.3,0.4-0.3,0.7
		l-2.6-0.2c0-0.5,0.1-0.9,0.3-1.3c0.2-0.4,0.4-0.7,0.7-1c0.3-0.3,0.7-0.5,1.1-0.7c0.4-0.2,0.9-0.2,1.4-0.2c0.5,0,1,0.1,1.5,0.2
		c0.4,0.1,0.8,0.4,1.1,0.6c0.3,0.3,0.5,0.6,0.7,0.9c0.2,0.4,0.2,0.7,0.2,1.1c0,0.4-0.1,0.7-0.2,1.1c-0.2,0.3-0.3,0.6-0.5,0.9
		c-0.2,0.3-0.5,0.6-0.8,0.9l-1.2,1.3L163.9,11.5L163.9,11.5z"/>
</g>
</svg>
